<?xml version="1.0" encoding="UTF-8"?>
<!-- Created with Inkscape (http://www.inkscape.org/) -->
<svg id="svg3705" version="1.1" height="356.35" width="593.91" viewBox="0 0 593.91 356.35" xmlns="http://www.w3.org/2000/svg">
  <g>
    <path id="Ticket" d="m46.016 349.35s-13.519-75.276-13.519-80.1c0-8.2895 19.754-11.137 25.012-21.434 15.319-23.277 1.7079-52.738-20.374-60.266-10.092-3.0776-18.912-1.1085-21.998-16.128-4.8356-26.595-14.953-75.329-15.045-79.688s3.7142-4.9794 3.7142-4.9794 336.45-58.235 498.89-86.45c7.842-1.3621 13.784 7.2542 14.29 19.131 3.2896 10.262 10.206 18.314 17.261 26.664 7.1608 9.233 8.7986 20.722 8.5403 32.056 3.7082 9.8561 2.1019 22.14 9.7018 29.54 2.5521 10.693 1.678 21.223-4.5438 31.136 1.6631 11.017 1.9311 22.024 2.1505 33.555 0.86124 15.359-1.9905 31.286 2.5732 46.19 6.2737 10.603 7.1403 22.836 10.502 34.274-2.8896 8.3731-3.6606 13.41-15.203 15.734-78.012 14.741-234.52 41.51-234.52 41.51s-263.12 46.253-265.62 46.253c-0.49894 0-1.8016-6.997-1.8016-6.997z" fill="#0e3fa9"/>
    <path id="BLOCKBUSTER" d="m124.14 201.95-3.16-17.098-10.009-6.571-26.145 4.833 11.989 64.865 26.145-4.832 8.122-11.231-3.21-17.37-9.511-4.885zm-15.978-10.519 2.542 13.751-6.152 1.137-2.542-13.751zm4.799 25.964 2.676 14.475-6.152 1.137-2.676-14.475zm30.004-45.027-14.927 2.759 11.989 64.865 28.407-5.25-2.257-12.213-13.48 2.491zm54.902-0.418-11.961-7.519-16.013 2.96-8.122 11.231 8.511 46.048 11.6 7.586 16.646-3.077 7.851-11.181zm-14.408 5.564 7.474 40.439-6.242 1.154-7.475-40.439zm56.716-13.383-11.6-7.586-16.284 3.009-8.032 11.215 8.511 46.048 12.415 7.435 15.379-2.842 8.122-11.231-3.378-18.275-14.565 2.692 2.859 15.47-6.423 1.187-7.474-40.439 6.423-1.187 2.341 12.666 14.565-2.692zm19.127-13.266-14.927 2.759 11.989 64.865 14.927-2.759-5.116-27.683 0.181-0.033 15.973 25.676 16.193-2.993-21.314-31.799 7.335-32.698-15.289 2.826-4.654 29.489-0.181 0.033zm69.137 13.324-3.16-17.098-10.009-6.57-26.145 4.832 11.989 64.865 26.145-4.832 8.122-11.231-3.21-17.37-9.51-4.885zm-15.978-10.519 2.542 13.751-6.152 1.137-2.541-13.751zm4.799 25.964 2.676 14.475-6.152 1.137-2.675-14.475zm51.083-48.923-14.927 2.759 9.732 52.652-6.514 1.204-9.732-52.652-14.927 2.759 10.25 55.457 11.691 7.569 16.736-3.094 7.941-11.197zm15.8-2.92-8.031 11.214 3.595 19.451 12.143 7.485 10.826-1.159 2.508 13.571-6.152 1.137-1.589-8.595-14.927 2.759 2.107 11.399 11.419 7.62 16.556-3.06 8.031-11.215-3.645-19.722-11.962-7.519-11.023 1.102-2.441-13.208 6.151-1.138 1.606 8.685 14.927-2.759-2.124-11.489-12.233-7.469zm60.673-11.215-31.754 5.87 2.257 12.213 8.413-1.555 9.732 52.652 14.927-2.759-9.731-52.652 8.413-1.556zm31.089-5.746-27.502 5.083 11.989 64.866 27.864-5.151-2.257-12.213-12.937 2.392-2.96-16.013 10.585-1.957-2.257-12.213-10.585 1.957-2.258-12.214 12.575-2.324zm42.599 1.857-11.781-7.553-25.602 4.732 11.989 64.865 14.927-2.759-4.782-25.873 6.242-1.154 4.782 25.874 14.475-2.676-4.782-25.874-8.68-4.944 6.355-7.631zm-13.957 5.479 2.693 14.566-6.243 1.153-2.692-14.565z" fill="#ffa903"/>
    <path id="Border" d="m517.47 22.703-460.66 80.497 37.729 219.1 464.54-81.442" fill="none" stroke="#ffa903" stroke-width="5"/>
    <path id="Registered" d="m582.41 245.9a9.505 9.505 0 0 0-9.5059 9.5059 9.505 9.505 0 0 0 9.5059 9.5039 9.505 9.505 0 0 0 9.5059-9.5039 9.505 9.505 0 0 0-9.5059-9.5059zm0 1.5742a7.931 7.931 0 0 1 7.9316 7.9316 7.931 7.931 0 0 1-7.9316 7.9316 7.931 7.931 0 0 1-7.9316-7.9316 7.931 7.931 0 0 1 7.9316-7.9316zm-4.1641 2.9609v10.23h1.6504v-4.3476h0.96875c0.58 0 1.0222 0.11851 1.3242 0.35351 0.437 0.319 1.0106 1.1129 1.7246 2.3809l0.9082 1.6133h2.0156l-1.2461-2.0039c-0.596-0.949-1.1017-1.6244-1.5137-2.0274-0.218-0.21-0.50814-0.39001-0.86914-0.54101 0.882-0.068 1.589-0.3786 2.123-0.9336 0.533-0.554 0.80078-1.2061 0.80078-1.9531 0-0.53-0.15952-1.029-0.47852-1.5-0.319-0.47-0.74815-0.79928-1.2852-0.98828-0.538-0.189-1.4064-0.28321-2.6074-0.28321h-3.5156zm1.6504 1.3867h1.877c0.806 0 1.3582 0.05878 1.6562 0.17578 0.298 0.118 0.53122 0.29516 0.69922 0.53516 0.168 0.239 0.25196 0.5105 0.25196 0.8125 0 0.47-0.17349 0.84877-0.52149 1.1348-0.349 0.286-1.002 0.42773-1.959 0.42773h-2.0039v-3.0859z" fill="black" fill-rule="evenodd"/>
  </g>
</svg>
